<svg width="512" height="512" viewBox="0 0 512 512" fill="none" xmlns="http://www.w3.org/2000/svg">
<path d="M83.3148 320.416C59.5648 320.416 42.3736 314.755 31.7413 303.432C21.2471 291.971 16 276.023 16 255.587C16 242.469 18.2783 231.215 22.835 221.826C27.5298 212.298 34.7791 204.98 44.5829 199.871C54.5248 194.624 67.4354 192 83.3148 192H89.7356C105.339 192 117.973 194.555 127.639 199.664C137.443 204.773 144.623 212.091 149.18 221.619C153.736 231.146 156.015 242.469 156.015 255.587C156.015 276.023 150.768 291.971 140.274 303.432C129.779 314.755 112.933 320.416 89.7356 320.416H83.3148ZM85.3861 297.425H87.6644C96.0874 297.425 102.991 296.045 108.377 293.283C113.9 290.521 117.973 286.103 120.597 280.027C123.22 273.813 124.532 265.667 124.532 255.587C124.532 245.783 123.151 237.912 120.39 231.975C117.766 225.899 113.693 221.549 108.17 218.926C102.784 216.164 95.9493 214.783 87.6644 214.783H85.3861C76.825 214.783 69.7138 216.233 64.0524 219.133C58.3911 221.895 54.1796 226.244 51.418 232.182C48.7944 238.119 47.4826 245.921 47.4826 255.587C47.4826 265.667 48.8634 273.813 51.6251 280.027C54.5248 286.103 58.7363 290.521 64.2595 293.283C69.9209 296.045 76.9631 297.425 85.3861 297.425Z" fill="white"/>
<path d="M174.834 318.345C175.8 318.345 176.698 317.378 177.526 315.445C178.493 313.512 178.976 310.336 178.976 305.917V206.499C178.976 202.08 178.493 198.973 177.526 197.178C176.56 195.245 175.593 194.209 174.627 194.071H242.563C254.714 194.071 264.38 195.59 271.56 198.628C278.878 201.666 284.126 206.153 287.301 212.091C290.615 217.89 292.272 225.14 292.272 233.839C292.272 240.052 291.099 245.576 288.751 250.409C286.542 255.241 283.435 259.177 279.431 262.215C275.426 265.252 270.939 267.462 265.968 268.842V269.464C271.491 271.673 277.29 276.023 283.366 282.513C289.442 288.864 294.896 295.976 299.729 303.846C302.905 308.955 305.804 312.614 308.428 314.824C311.051 317.033 313.054 318.207 314.434 318.345H262.24C263.897 318.207 265.208 317.309 266.175 315.652C267.28 313.857 266.934 310.957 265.139 306.953C262.24 300.325 258.718 294.595 254.576 289.762C250.434 284.929 245.601 281.27 240.077 278.784C234.692 276.161 228.479 274.849 221.436 274.849H219.158C214.878 274.849 212.392 275.194 211.702 275.885C211.011 276.575 210.666 278.301 210.666 281.063V305.917C210.666 310.336 211.149 313.512 212.116 315.445C213.082 317.378 214.049 318.345 215.016 318.345H174.834ZM219.158 253.93H236.142C244.841 253.93 251.124 252.411 254.99 249.373C258.857 246.197 260.79 241.019 260.79 233.839C260.79 230.663 260.099 227.832 258.718 225.347C257.338 222.861 254.99 220.928 251.676 219.547C248.5 218.166 244.013 217.476 238.213 217.476H219.158C214.878 217.476 212.392 217.683 211.702 218.097C211.011 218.512 210.666 220.1 210.666 222.861V248.337C210.666 251.099 211.011 252.756 211.702 253.308C212.392 253.723 214.878 253.93 219.158 253.93Z" fill="white"/>
<path d="M324.71 318.345C325.676 318.345 326.643 317.378 327.609 315.445C328.576 313.512 329.059 310.336 329.059 305.917V206.499C329.059 202.08 328.576 198.973 327.609 197.178C326.643 195.245 325.676 194.209 324.71 194.071H373.591C372.762 194.209 372.348 195.314 372.348 197.385C372.486 199.318 373.66 202.494 375.869 206.913C376.835 208.708 378.216 211.539 380.011 215.405C381.945 219.271 384.085 223.759 386.432 228.868C388.918 233.977 391.472 239.431 394.096 245.23C396.857 251.03 399.619 256.829 402.381 262.629C405.142 268.428 407.697 273.882 410.044 278.991H410.251C412.737 273.882 415.36 268.497 418.122 262.836C421.022 257.036 423.852 251.237 426.614 245.438C429.376 239.638 431.999 234.184 434.485 229.075C436.97 223.828 439.11 219.271 440.905 215.405C442.7 211.4 444.012 208.432 444.841 206.499C446.774 202.08 447.809 198.904 447.948 196.971C448.086 195.038 447.809 194.071 447.119 194.071H496C495.033 194.071 494.067 195.038 493.1 196.971C492.134 198.904 491.65 202.149 491.65 206.706V305.917C491.65 310.336 492.134 313.512 493.1 315.445C494.067 317.378 495.033 318.345 496 318.345H456.025C456.992 318.345 457.889 317.378 458.718 315.445C459.685 313.512 460.168 310.336 460.168 305.917V238.81H459.754C457.544 242.952 455.197 247.509 452.711 252.48C450.226 257.451 447.671 262.491 445.048 267.6C442.562 272.709 440.146 277.68 437.799 282.513C435.451 287.345 433.311 291.764 431.378 295.768C429.445 299.773 427.857 303.156 426.614 305.917C424.681 310.198 423.645 313.305 423.507 315.238C423.507 317.171 423.852 318.207 424.543 318.345H395.546C396.236 318.207 396.512 317.171 396.374 315.238C396.374 313.305 395.407 310.198 393.474 305.917C392.37 303.432 390.851 300.187 388.918 296.183C387.123 292.178 385.051 287.829 382.704 283.134C380.495 278.301 378.147 273.33 375.662 268.221C373.176 262.974 370.691 257.865 368.205 252.894C365.858 247.785 363.649 243.09 361.577 238.81H360.956V305.917C360.956 310.336 361.439 313.512 362.406 315.445C363.373 317.378 364.339 318.345 365.306 318.345H324.71Z" fill="white"/>
</svg>
